<svg width="137" height="28" viewBox="0 0 137 28" fill="none" xmlns="http://www.w3.org/2000/svg">
<path fill-rule="evenodd" clip-rule="evenodd" d="M132.821 12.6397C132.627 12.5311 132.315 12.4765 131.885 12.4765H131.225V14.0651H131.924C132.251 14.0651 132.496 14.0326 132.66 13.9676C132.962 13.8474 133.113 13.6192 133.113 13.2819C133.113 12.9627 133.016 12.7482 132.821 12.6397ZM131.987 11.9487C132.531 11.9487 132.93 12.0014 133.184 12.1067C133.638 12.2958 133.864 12.6663 133.864 13.2182C133.864 13.6101 133.721 13.8987 133.436 14.084C133.285 14.1821 133.073 14.2523 132.802 14.2965C133.146 14.3505 133.396 14.4941 133.555 14.7255C133.714 14.9576 133.794 15.1844 133.794 15.4048V15.7259C133.794 15.8273 133.797 15.9358 133.804 16.0522C133.811 16.1679 133.824 16.2439 133.842 16.2803L133.87 16.3343H133.146C133.142 16.32 133.138 16.3057 133.135 16.2914C133.131 16.2764 133.128 16.2602 133.124 16.242L133.108 16.1016V15.7545C133.108 15.2481 132.97 14.9134 132.694 14.7509C132.531 14.6566 132.245 14.6098 131.834 14.6098H131.225V16.3343H130.453V11.9487H131.987ZM129.636 11.7258C128.969 12.3966 128.635 13.2078 128.635 14.1581C128.635 15.1155 128.967 15.9319 129.631 16.6066C130.299 17.2813 131.109 17.6187 132.063 17.6187C133.017 17.6187 133.828 17.2813 134.496 16.6066C135.162 15.9319 135.497 15.1155 135.497 14.1581C135.497 13.2078 135.162 12.3966 134.496 11.7258C133.824 11.0511 133.014 10.7137 132.063 10.7137C131.116 10.7137 130.307 11.0511 129.636 11.7258ZM134.893 16.9875C134.113 17.7708 133.17 18.1627 132.063 18.1627C130.956 18.1627 130.015 17.7708 129.239 16.9875C128.466 16.2075 128.08 15.2624 128.08 14.1529C128.08 13.0531 128.47 12.1138 129.25 11.3338C130.026 10.5577 130.964 10.1697 132.063 10.1697C133.17 10.1697 134.113 10.5577 134.893 11.3338C135.672 12.1106 136.062 13.0498 136.062 14.1529C136.062 15.2592 135.672 16.2036 134.893 16.9875Z" fill="#1E1E1E"/>
<mask id="mask0_793_443" style="mask-type:alpha" maskUnits="userSpaceOnUse" x="0" y="0" width="20" height="21">
<path fill-rule="evenodd" clip-rule="evenodd" d="M0.000488281 0.650146H19.9919V20.6421H0.000488281V0.650146Z" fill="white"/>
</mask>
<g mask="url(#mask0_793_443)">
<path fill-rule="evenodd" clip-rule="evenodd" d="M9.99619 15.5936C7.26359 15.5936 5.04839 13.3784 5.04839 10.6465C5.04839 7.9139 7.26359 5.6987 9.99619 5.6987C12.7288 5.6987 14.944 7.9139 14.944 10.6465C14.944 13.3784 12.7288 15.5936 9.99619 15.5936ZM9.99619 0.650146C4.47509 0.650146 0.000488281 5.1254 0.000488281 10.6465C0.000488281 16.1669 4.47509 20.6422 9.99619 20.6422C15.5166 20.6422 19.9919 16.1669 19.9919 10.6465C19.9919 5.1254 15.5166 0.650146 9.99619 0.650146Z" fill="#FF5758"/>
</g>
<mask id="mask1_793_443" style="mask-type:alpha" maskUnits="userSpaceOnUse" x="24" y="10" width="19" height="18">
<path fill-rule="evenodd" clip-rule="evenodd" d="M24.8667 10.1697H42.9555V27.0175H24.8667V10.1697Z" fill="white"/>
</mask>
<g mask="url(#mask1_793_443)">
<path fill-rule="evenodd" clip-rule="evenodd" d="M24.8667 23.2347L27.791 20.7549C29.2854 22.5353 31.5428 23.4895 34.8487 23.4895C37.0743 23.4895 38.0597 23.0124 38.0597 22.027C38.0597 21.1365 37.582 20.7874 35.7704 20.5963L31.5428 20.1836C27.6643 19.7058 25.8202 18.0854 25.8202 15.2878C25.8202 12.0456 28.8083 10.1697 34.1493 10.1697C37.996 10.1697 41.1108 11.2506 42.8912 13.1896L40.3477 15.7961C38.7266 14.3336 36.724 13.6348 33.8633 13.6348C31.7651 13.6348 30.7797 14.0476 30.7797 14.9693C30.7797 15.733 31.3524 16.1139 32.8142 16.2732L37.4871 16.7496C41.3975 17.1949 42.9555 18.816 42.9555 21.6136C42.9555 24.9832 40.1254 27.0177 34.5946 27.0177C30.1752 27.0177 26.8375 25.7144 24.8667 23.2347Z" fill="black"/>
</g>
<path fill-rule="evenodd" clip-rule="evenodd" d="M43.4937 10.6464H47.0862V6.86336L52.5222 4.82886V10.6464H57.7664V14.2064H52.5222V19.7698C52.5222 21.645 53.5076 22.5667 55.5096 22.5667C56.4319 22.5667 57.1625 22.4406 57.7664 22.3132V26.4459C56.6549 26.7319 55.4777 26.8912 54.0789 26.8912C49.2156 26.8912 47.0862 24.8242 47.0862 20.9781V14.2064H43.4937V10.6464Z" fill="black"/>
<mask id="mask2_793_443" style="mask-type:alpha" maskUnits="userSpaceOnUse" x="58" y="10" width="21" height="18">
<path fill-rule="evenodd" clip-rule="evenodd" d="M58.5928 10.1697H78.462V27.0175H58.5928V10.1697Z" fill="white"/>
</mask>
<g mask="url(#mask2_793_443)">
<path fill-rule="evenodd" clip-rule="evenodd" d="M72.9298 18.5618C72.9298 15.447 71.2132 13.8246 68.5118 13.8246C65.8084 13.8246 64.0924 15.447 64.0924 18.5618C64.0924 21.6766 65.8084 23.3621 68.5118 23.3621C71.2132 23.3621 72.9298 21.6766 72.9298 18.5618ZM58.5928 18.5618C58.5928 13.1896 62.7248 10.1697 68.5118 10.1697C74.2968 10.1697 78.462 13.1896 78.462 18.5618C78.462 23.9341 74.2968 27.0177 68.5118 27.0177C62.7248 27.0177 58.5928 23.9341 58.5928 18.5618Z" fill="black"/>
</g>
<path fill-rule="evenodd" clip-rule="evenodd" d="M92.1294 10.2334C92.6065 10.2334 92.8606 10.2646 93.1785 10.3283V15.2878C92.6383 15.1916 92.1612 15.1604 91.5574 15.1604C89.8732 15.1604 88.6967 15.6056 87.9018 16.3681C86.852 17.3541 86.4705 18.816 86.4705 20.5651V26.8909H81.0352V10.6461H85.9947V15.033C86.8845 12.0131 89.0146 10.2334 92.1294 10.2334Z" fill="black"/>
<path fill-rule="evenodd" clip-rule="evenodd" d="M100.712 10.6461V13.8246C101.794 11.3774 103.764 10.1697 106.593 10.1697C109.391 10.1697 111.266 11.3774 112.22 13.8571C113.523 11.4086 115.653 10.1697 118.451 10.1697C122.424 10.1697 124.649 12.6494 124.649 17.1312V26.8909H119.214V18.1166C119.214 15.5101 118.196 14.2387 116.162 14.2387C114.032 14.2387 112.76 15.7005 112.76 18.2115V26.8909H107.324V18.1166C107.324 15.5101 106.306 14.2387 104.273 14.2387C102.143 14.2387 100.871 15.733 100.871 18.3077V26.8909H95.4346V10.6461H100.712Z" fill="black"/>
</svg>
